PathFileType	4	(X/Y/Z)	C:/Users/opensim2020/Desktop/walking_exp_matlab/subject01_walking06_straight_02.trc	
DataRate	CameraRate	NumFrames	NumMarkers	Units	OrigDataRate	OrigDataStartFrame	OrigNumFrames	
100.00	100.00	5	43	mm	100.00	1643	171	
Frame#	Time	LFHD			RFHD			LBHD			RBHD			C7			T10			CLAV			STRN			RBAK			LSHO			LUPA			LELB			LFRM			LWRA			LWRB			LFIN			RSHO			RUPA			RELB			RFRM			RWRA			RWRB			RFIN			LASI			RASI			LPSI			RPSI			LTHI			LKNE			LTIB			LANK			LHEE			LTOE			RTHI			RKNE			RTIB			RANK			RHEE			RTOE			*39			*40			*41			*42			
		X1	Y1	Z1	X2	Y2	Z2	X3	Y3	Z3	X4	Y4	Z4	X5	Y5	Z5	X6	Y6	Z6	X7	Y7	Z7	X8	Y8	Z8	X9	Y9	Z9	X10	Y10	Z10	X11	Y11	Z11	X12	Y12	Z12	X13	Y13	Z13	X14	Y14	Z14	X15	Y15	Z15	X16	Y16	Z16	X17	Y17	Z17	X18	Y18	Z18	X19	Y19	Z19	X20	Y20	Z20	X21	Y21	Z21	X22	Y22	Z22	X23	Y23	Z23	X24	Y24	Z24	X25	Y25	Z25	X26	Y26	Z26	X27	Y27	Z27	X28	Y28	Z28	X29	Y29	Z29	X30	Y30	Z30	X31	Y31	Z31	X32	Y32	Z32	X33	Y33	Z33	X34	Y34	Z34	X35	Y35	Z35	X36	Y36	Z36	X37	Y37	Z37	X38	Y38	Z38	X39	Y39	Z39	X40	Y40	Z40	X41	Y41	Z41	X42	Y42	Z42	X43	Y43	Z43	

129	1.280	-1075.30261	-362.97708	1656.10181	-1182.36804	-406.20667	1658.65723	-1116.26550	-247.34445	1624.69763	-1229.57263	-290.31903	1627.79761	-1153.56287	-201.67772	1425.81812	-1153.25476	-165.24254	1131.56348	-1140.06421	-343.89435	1354.00269	-1133.52368	-384.98450	1200.74304	-1232.97156	-150.76266	1231.43384	-983.44757	-271.25797	1385.97754	-905.31500	-208.33160	1205.64258	-914.60455	-166.40459	1063.62341	-890.69440	-169.82353	949.67737	-913.72498	-206.53633	814.09210	-885.03363	-155.02184	827.89325	-887.27350	-172.11603	742.54327	-1296.68030	-293.90863	1383.33655	-1405.07349	-266.54807	1182.37744	-1413.29175	-286.85358	1057.12720	-1439.32385	-357.69870	956.68793	-1414.55676	-477.27191	883.35950	-1452.68201	-437.98294	864.80505	-1451.47131	-503.77280	811.30487	-1041.26953	-342.94635	926.21277	-1260.26794	-335.76212	924.56702	-1084.80347	-155.37219	937.06946	-1228.71692	-151.21211	945.75452	-964.79242	-367.98502	603.22003	-985.32294	-400.64850	475.88229	-972.48456	-419.45081	293.83490	-1015.30109	-496.82019	81.83172	-1074.55762	-472.99042	39.81378	-998.73480	-644.10358	91.57833	-1307.20825	-221.03706	602.10193	-1281.04688	-194.02431	443.63519	-1286.10510	-103.52010	291.80685	-1232.66638	-34.06857	94.87533	-1182.99426	21.23974	68.68244	-1222.55322	-166.97102	34.03079	-1162.50842	-392.36581	1693.65247	-3102.19800	1973.10315	1024.00134	-3140.81445	2012.54614	1022.10181			 
130	1.290	-1073.23438	-372.54611	1655.14233	-1180.25476	-415.77597	1657.61963	-1114.13452	-256.98242	1623.68787	-1227.45703	-299.92255	1626.81616	-1151.05750	-211.47488	1424.51025	-1151.21130	-175.26469	1130.31567	-1138.29590	-353.67334	1353.00378	-1132.07971	-394.84888	1199.73718	-1230.83765	-160.43784	1230.23718	-981.51257	-280.98425	1384.57703	-903.62091	-217.91579	1204.19873	-913.16321	-175.39861	1062.12439	-889.63831	-178.57828	948.30090	-913.13617	-214.85112	812.80103	-884.07233	-163.50641	826.62451	-886.76843	-180.57797	741.12469	-1294.78577	-303.38062	1382.44836	-1403.49841	-276.46906	1181.58606	-1412.05981	-296.95755	1056.41040	-1438.39807	-368.39957	956.53180	-1413.62805	-488.29663	883.73260	-1451.75513	-449.09680	865.02679	-1450.66699	-515.23779	811.89740	-1040.63477	-353.73129	924.67419	-1259.42993	-345.33969	923.57922	-1082.51575	-165.78638	936.04309	-1226.42322	-160.81633	944.94238	-964.39099	-378.77582	602.43066	-984.78229	-411.00381	474.90945	-972.16235	-430.97952	292.84470	-1015.40118	-510.06317	81.46683	-1074.85327	-486.26270	39.27407	-999.28503	-657.29419	92.08131	-1306.54700	-228.55779	601.74536	-1280.77588	-200.47968	443.28729	-1285.97876	-107.70230	292.82986	-1233.13098	-35.19045	96.86120	-1183.53076	20.53814	71.54172	-1222.74353	-167.02721	34.00124	-1160.40625	-401.99683	1692.61267	-3102.54590	1973.00452	1024.53503	-3138.39600	2013.17810	1022.35889			 
131	1.300	-1071.03503	-382.23138	1653.98291	-1178.11865	-425.39563	1656.65002	-1111.88477	-266.59186	1622.65234	-1225.23975	-309.54285	1625.83435	-1148.90234	-221.15414	1423.39014	-1149.22644	-185.33392	1129.09436	-1136.45581	-363.45114	1351.99927	-1130.60010	-404.88736	1198.79980	-1228.63379	-170.17607	1229.00537	-979.47211	-290.88263	1383.19763	-901.80670	-227.69254	1202.77759	-911.67853	-184.65706	1060.98193	-888.37109	-187.65221	946.89355	-912.20343	-223.71179	811.41571	-882.97375	-172.52194	825.20459	-886.09393	-189.47411	739.73462	-1292.84778	-312.89090	1381.50647	-1401.70093	-286.19537	1180.78772	-1410.68140	-306.85971	1055.70532	-1437.19617	-378.67548	956.17126	-1412.69678	-499.00134	883.93939	-1450.84387	-459.87299	865.10657	-1449.90405	-526.20740	812.36664	-1039.77417	-364.56967	923.25146	-1258.59546	-355.03470	922.44684	-1080.28223	-176.30312	935.07458	-1224.06470	-170.68793	944.09863	-964.25842	-391.11859	601.91046	-984.45764	-422.10504	474.06604	-972.30341	-441.40466	291.39227	-1015.71503	-520.32709	80.09959	-1075.02039	-497.02542	38.24909	-999.73309	-668.18896	90.95858	-1306.38245	-236.32069	601.60370	-1280.33948	-207.12996	442.96176	-1285.79150	-112.16943	293.84747	-1233.63818	-36.50447	98.93834	-1184.25403	19.51668	74.63998	-1222.88135	-167.35092	34.05053	-1158.34009	-411.70691	1691.73352	-3102.59009	1972.96008	1023.89209	-3137.99829	2013.23730	1022.47723			 
132	1.310	-1068.87463	-392.33868	1653.13403	-1175.87854	-435.00439	1655.69299	-1109.59387	-276.29590	1621.65442	-1222.97864	-319.11765	1624.85852	-1146.71313	-230.79565	1422.41028	-1147.18213	-195.58643	1127.90112	-1134.46375	-373.21567	1350.95374	-1128.96338	-414.95264	1197.87573	-1226.42554	-179.99113	1227.86487	-977.36261	-300.78217	1381.81348	-899.91693	-237.54468	1201.27563	-909.99261	-194.13152	1059.44067	-886.99097	-197.00093	945.46570	-911.14343	-233.01404	810.08563	-881.85620	-181.86234	823.76495	-885.13477	-198.98209	738.29614	-1290.77832	-322.48230	1380.62463	-1399.77039	-295.69824	1180.01160	-1409.18274	-316.61703	1055.00928	-1435.96216	-388.76093	955.76642	-1411.66223	-509.31937	883.93921	-1449.80859	-470.23361	864.98328	-1449.06665	-536.73999	812.58978	-1038.72473	-375.46414	922.08447	-1257.52332	-364.98825	921.45514	-1078.15637	-186.90410	934.15277	-1221.76733	-180.89404	943.28461	-964.25153	-404.33911	601.67743	-984.30597	-433.55228	473.41882	-972.42108	-451.46310	290.06653	-1016.33331	-528.91589	78.28912	-1075.84058	-504.86774	36.69107	-999.97644	-676.06799	87.97947	-1305.79651	-244.50691	601.34149	-1280.25208	-214.29799	442.65802	-1285.42322	-116.66590	295.15112	-1234.30737	-38.03394	101.08851	-1184.75562	18.48494	77.81703	-1222.95032	-167.47105	34.07644	-1155.99707	-421.23434	1690.62659	-3102.48413	1972.97668	1024.02515	-3138.34448	2013.09644	1022.29535			 
133	1.320	-1066.53735	-401.94400	1652.18005	-1173.52454	-444.57730	1654.77759	-1107.20227	-285.94022	1620.67297	-1220.63892	-328.68774	1623.92725	-1144.37207	-240.68355	1421.19263	-1145.17236	-205.97006	1126.71143	-1132.43408	-383.38000	1350.13977	-1127.18115	-425.09149	1197.01563	-1224.19470	-189.91013	1226.69043	-975.16656	-310.63217	1380.52588	-897.87549	-247.55624	1199.82117	-908.28198	-204.01723	1057.94824	-885.47974	-206.85355	944.04706	-909.89355	-242.89229	808.69135	-880.55914	-191.65654	822.26782	-883.94849	-208.75937	736.86188	-1288.71851	-332.04562	1379.78040	-1397.67773	-305.00128	1179.30994	-1407.59265	-326.18744	1054.39258	-1434.36340	-398.57739	955.15814	-1410.53345	-519.29602	883.80878	-1448.61890	-480.18164	864.75562	-1448.12939	-546.88214	812.56274	-1037.49023	-386.48679	921.03552	-1256.40137	-375.17267	920.39948	-1076.10596	-197.72290	933.23334	-1219.68738	-191.06357	942.63318	-964.15527	-418.40604	601.55011	-984.25458	-446.04807	472.73120	-972.67731	-461.05759	288.68262	-1017.20306	-535.05585	75.99416	-1077.04321	-510.64224	34.53414	-1000.24921	-682.33209	83.94024	-1304.74524	-253.14758	600.78278	-1279.79236	-221.71033	442.28812	-1285.27905	-121.78361	296.45914	-1234.93567	-39.74299	103.54198	-1185.65637	17.33662	81.28152	-1223.03357	-167.77019	34.06389	-1153.61255	-430.79962	1689.72119	-3101.95703	1973.20996	1023.96991	-3138.47632	2013.06995	1022.16174			 
